<?xml version="1.0" standalone="no"?>
<!DOCTYPE svg PUBLIC "-//W3C//DTD SVG 20010904//EN"
 "http://www.w3.org/TR/2001/REC-SVG-20010904/DTD/svg10.dtd">
<svg version="1.0" xmlns="http://www.w3.org/2000/svg"
 width="200.000000pt" height="200.000000pt" viewBox="0 0 200.000000 200.000000"
 preserveAspectRatio="xMidYMid meet">
<metadata>
Created by potrace 1.11, written by Peter Selinger 2001-2013
</metadata>
<g transform="translate(0.000000,200.000000) scale(0.100000,-0.100000)"
fill="#000000" stroke="none">
<path d="M820 1485 c-91 -35 -175 -69 -187 -74 -23 -11 -23 -11 -23 -250 0
-222 1 -241 18 -250 25 -13 366 -141 377 -141 10 0 352 128 375 140 15 8 17
36 16 252 l-1 243 -190 72 c-104 40 -196 73 -205 72 -8 0 -89 -29 -180 -64z
m238 16 l34 -17 -40 -12 c-50 -15 -62 -15 -103 2 l-34 14 35 15 c46 20 68 20
108 -2z m-141 -43 c18 -7 33 -15 33 -19 0 -11 -65 -30 -81 -25 -8 3 -27 11
-44 17 l-30 11 30 14 c38 17 51 17 92 2z m268 -2 l29 -12 -43 -17 c-35 -15
-49 -15 -82 -6 -48 15 -49 23 -6 37 43 14 67 13 102 -2z m-384 -78 c-37 -16
-44 -16 -86 -1 -25 8 -44 17 -42 19 2 2 21 10 43 17 34 12 45 12 82 -2 l43
-16 -40 -17z m512 27 l28 -12 -44 -17 c-44 -17 -49 -16 -117 10 -21 9 60 44
84 37 11 -3 33 -11 49 -18z m-263 1 l33 -13 -39 -14 c-41 -14 -51 -14 -93 3
l-26 10 30 14 c39 17 55 17 95 0z m-112 -50 c23 -12 22 -13 -17 -26 -34 -11
-48 -11 -83 0 l-43 13 40 18 c40 17 61 16 103 -5z m246 0 l29 -12 -40 -15
c-36 -15 -43 -15 -84 1 l-44 18 35 15 c35 15 51 14 104 -7z m-491 -2 l47 -16
0 -64 c0 -35 -2 -64 -4 -64 -2 0 -25 9 -50 20 l-46 19 0 61 c0 33 1 60 3 60 2
0 24 -7 50 -16z m677 -44 c0 -64 -3 -67 -86 -94 -19 -6 -20 -1 -15 105 1 15
58 46 89 48 8 1 12 -17 12 -59z m-329 8 c22 -6 39 -14 39 -18 0 -4 -17 -13
-39 -20 -30 -10 -46 -10 -75 0 -43 14 -45 23 -8 37 37 15 39 15 83 1z m-218
-14 c26 -9 47 -21 48 -27 0 -7 2 -36 2 -64 2 -58 4 -57 -70 -27 -32 14 -33 16
-33 74 0 33 1 60 3 60 2 0 24 -7 50 -16z m417 -44 c0 -59 0 -60 -35 -75 -68
-28 -70 -27 -70 40 l0 60 45 17 c25 9 48 17 53 17 4 1 7 -26 7 -59z m-285 -4
c34 -15 35 -16 35 -75 0 -66 -3 -69 -55 -47 -34 15 -35 16 -35 75 0 66 3 69
55 47z m155 -46 c0 -59 0 -60 -36 -75 -20 -8 -41 -15 -46 -15 -5 0 -8 28 -6
63 3 61 4 62 38 74 19 7 38 12 43 12 4 1 7 -26 7 -59z m-372 -94 l3 -65 -51
21 -50 21 0 62 0 63 48 -18 47 -18 3 -66z m629 -23 c-3 -2 -27 -12 -54 -23
l-48 -18 2 60 c1 33 5 63 8 67 4 3 25 13 48 22 l42 17 3 -60 c2 -33 1 -62 -1
-65z m-497 21 c3 -11 5 -26 4 -34 -1 -8 -2 -29 -3 -47 l-1 -32 -50 21 -50 21
0 62 0 63 47 -18 c26 -10 49 -26 53 -36z m370 -8 l0 -63 -43 -17 c-23 -9 -47
-16 -53 -16 -12 0 -12 105 -1 117 5 4 27 15 50 24 23 9 43 17 45 18 1 1 2 -28
2 -63z m-250 -83 c0 -35 -2 -63 -5 -63 -2 0 -23 7 -45 16 l-40 16 0 63 0 63
45 -17 45 -16 0 -62z m120 28 c0 -55 -2 -60 -27 -69 -16 -5 -36 -13 -45 -17
-16 -6 -18 0 -18 57 0 61 1 65 28 75 57 23 62 19 62 -46z m-416 -11 l46 -19 0
-61 c0 -33 -1 -60 -3 -60 -2 0 -24 7 -50 16 l-47 16 0 64 c0 35 2 64 4 64 2 0
25 -9 50 -20z m676 -45 c0 -39 -4 -65 -10 -65 -6 0 -29 -9 -50 -19 -44 -21
-42 -24 -42 44 0 68 1 70 45 87 23 8 45 16 50 17 4 0 7 -28 7 -64z m-537 -6
c39 -13 40 -15 39 -97 0 -19 -2 -36 -5 -38 -2 -2 -25 4 -50 13 l-47 17 0 64
c0 47 3 62 13 58 6 -2 29 -10 50 -17z m407 -42 l0 -63 -47 -17 c-61 -23 -62
-20 -54 93 1 13 65 46 94 49 4 1 7 -27 7 -62z m-277 -9 c26 -9 27 -13 27 -73
l0 -64 -45 17 -45 16 0 64 c0 57 2 63 18 57 9 -4 29 -12 45 -17z m147 -41 l0
-62 -45 -16 -45 -17 0 63 0 62 38 16 c20 8 40 15 45 16 4 1 7 -27 7 -62z"/>
<path d="M889 638 c-2 -106 -1 -129 6 -136 3 -4 9 -1 13 5 5 8 13 9 22 3 23
-15 56 -12 80 8 26 21 30 83 8 106 -18 17 -76 28 -84 15 -12 -20 -24 -7 -24
25 0 19 -4 38 -10 41 -6 4 -10 -21 -11 -67z m110 -30 c23 -19 16 -64 -11 -82
-28 -17 -72 4 -76 38 -6 54 45 80 87 44z"/>
<path d="M664 662 c2 -39 2 -39 -23 -26 -72 38 -138 -60 -79 -116 23 -21 72
-27 83 -10 5 8 11 7 21 -1 17 -14 16 -22 18 94 2 71 -1 97 -10 97 -8 0 -11
-14 -10 -38z m-19 -48 c20 -20 16 -73 -6 -87 -23 -14 -67 0 -74 24 -10 29 2
67 23 72 32 9 40 7 57 -9z"/>
<path d="M260 671 c0 -8 -8 -20 -17 -27 -16 -12 -16 -13 -2 -14 12 0 16 -12
18 -52 2 -56 13 -78 42 -78 27 0 33 18 7 22 -20 3 -23 10 -26 56 -3 48 -1 52
19 52 12 0 19 3 15 8 -4 4 -12 7 -16 7 -5 0 -16 9 -24 20 -10 13 -15 15 -16 6z"/>
<path d="M1560 669 c0 -9 -8 -20 -17 -24 -16 -6 -16 -7 -2 -15 12 -7 17 -25
18 -62 1 -54 12 -70 45 -66 28 4 31 25 4 24 -21 -1 -23 4 -26 52 -3 47 -1 52
17 52 12 0 21 5 21 11 0 5 -5 7 -11 3 -7 -4 -20 4 -30 17 -14 18 -19 20 -19 8z"/>
<path d="M134 640 c-46 -18 -33 -65 20 -74 69 -12 57 -51 -13 -42 -42 5 -44 4
-27 -9 39 -30 112 -9 105 30 -4 20 -21 31 -61 40 -30 6 -37 29 -12 39 8 3 26
3 40 0 14 -4 24 -2 24 5 0 6 -3 11 -7 12 -5 0 -17 2 -28 4 -11 2 -29 0 -41 -5z"/>
<path d="M368 643 c-3 -4 -4 -32 -3 -62 3 -73 40 -100 96 -71 13 8 19 7 19 0
0 -6 5 -8 10 -5 6 3 10 35 10 70 0 35 -4 67 -10 70 -5 3 -10 0 -11 -7 -6 -108
-11 -118 -56 -118 -29 0 -35 12 -37 70 -1 47 -9 70 -18 53z"/>
<path d="M718 644 c-4 -3 7 -34 24 -69 35 -75 34 -99 -5 -103 -15 -2 -27 -8
-27 -13 0 -11 40 -12 57 -1 10 6 93 175 93 189 0 18 -31 -26 -50 -70 l-23 -52
-28 63 c-29 63 -31 66 -41 56z"/>
<path d="M1103 639 c-48 -18 -58 -86 -17 -118 35 -28 69 -26 100 4 18 18 23
32 20 52 -2 16 -5 31 -5 35 -3 21 -67 39 -98 27z m67 -29 c24 -24 25 -38 4
-68 -18 -26 -50 -28 -76 -5 -22 20 -23 51 -1 75 21 24 48 23 73 -2z"/>
<path d="M1280 643 c-23 -8 -50 -46 -50 -71 0 -30 43 -72 73 -72 37 0 77 36
77 70 0 48 -55 88 -100 73z m64 -35 c20 -29 20 -47 -1 -70 -36 -40 -100 -6
-87 46 12 47 62 61 88 24z"/>
<path d="M1418 628 c-14 -14 -16 -23 -8 -38 6 -11 14 -20 18 -21 33 -3 57 -11
63 -21 14 -22 -3 -30 -47 -25 -52 5 -59 -9 -10 -18 44 -9 73 1 81 25 9 28 0
38 -46 50 -30 8 -39 16 -37 28 3 13 13 17 41 16 20 -1 37 3 37 7 0 5 -6 10
-12 10 -7 1 -24 3 -37 4 -13 1 -32 -6 -43 -17z"/>
<path d="M1690 637 c-13 -7 -30 -23 -36 -36 -32 -64 55 -130 112 -86 18 14 17
15 -17 9 -41 -7 -79 9 -79 32 0 10 10 14 33 13 89 -5 106 7 70 49 -24 27 -53
34 -83 19z m62 -24 c28 -25 22 -30 -32 -30 -53 0 -60 6 -34 31 20 21 43 20 66
-1z"/>
<path d="M1828 638 c-4 -11 -3 -58 1 -132 1 -11 15 2 17 15 1 5 2 27 3 49 1
33 5 42 26 50 14 5 25 14 25 20 0 6 -9 6 -26 0 -32 -13 -37 -12 -29 0 3 6 2
10 -3 10 -6 0 -12 -6 -14 -12z"/>
</g>
</svg>
